<mxfile host="app.diagrams.net" modified="2020-10-07T10:23:50.363Z" agent="5.0 (Windows NT 10.0; Win64; x64) AppleWebKit/537.36 (KHTML, like Gecko) Chrome/85.0.4183.121 Safari/537.36" etag="4LstR0kbDyRKq7OShMkR" version="13.7.7" type="github" pages="2">
  <diagram name="Page-1" id="bd83a815-5ea8-2e97-e5ec-87c9f400f2fa">
    <mxGraphModel dx="1038" dy="580" grid="1" gridSize="10" guides="1" tooltips="1" connect="1" arrows="1" fold="1" page="1" pageScale="1.5" pageWidth="1169" pageHeight="826" background="#ffffff" math="0" shadow="0">
      <root>
        <mxCell id="0" style=";html=1;" />
        <mxCell id="1" style=";html=1;" parent="0" />
        <mxCell id="1516e18e63f93b96-4" value="" style="whiteSpace=wrap;html=1;rounded=0;shadow=0;strokeWidth=1;fontSize=14" parent="1" vertex="1">
          <mxGeometry x="1400" y="1140" width="60" height="50" as="geometry" />
        </mxCell>
        <mxCell id="1516e18e63f93b96-5" value="Relation 8" style="whiteSpace=wrap;html=1;rounded=0;shadow=0;strokeWidth=1;fontSize=14" parent="1" vertex="1">
          <mxGeometry x="1460" y="1140" width="210" height="50" as="geometry" />
        </mxCell>
        <mxCell id="1516e18e63f93b96-12" value="" style="rhombus;whiteSpace=wrap;html=1;rounded=0;shadow=0;strokeWidth=3;fillColor=#000000;fontSize=14" parent="1" vertex="1">
          <mxGeometry x="1415" y="1150" width="30" height="30" as="geometry" />
        </mxCell>
        <mxCell id="1516e18e63f93b96-14" value="" style="whiteSpace=wrap;html=1;rounded=0;shadow=0;strokeWidth=1;fontSize=14" parent="1" vertex="1">
          <mxGeometry x="1400" y="1090" width="60" height="50" as="geometry" />
        </mxCell>
        <mxCell id="1516e18e63f93b96-15" value="Relation 7" style="whiteSpace=wrap;html=1;rounded=0;shadow=0;strokeWidth=1;fontSize=14" parent="1" vertex="1">
          <mxGeometry x="1460" y="1090" width="210" height="50" as="geometry" />
        </mxCell>
        <mxCell id="1516e18e63f93b96-18" value="" style="whiteSpace=wrap;html=1;rounded=0;shadow=0;strokeWidth=1;fontSize=14" parent="1" vertex="1">
          <mxGeometry x="1400" y="1040" width="60" height="50" as="geometry" />
        </mxCell>
        <mxCell id="1516e18e63f93b96-19" value="Relation 6" style="whiteSpace=wrap;html=1;rounded=0;shadow=0;strokeWidth=1;fontSize=14" parent="1" vertex="1">
          <mxGeometry x="1460" y="1040" width="210" height="50" as="geometry" />
        </mxCell>
        <mxCell id="1516e18e63f93b96-20" value="" style="whiteSpace=wrap;html=1;rounded=0;shadow=0;strokeWidth=1;fontSize=14" parent="1" vertex="1">
          <mxGeometry x="1400" y="990" width="60" height="50" as="geometry" />
        </mxCell>
        <mxCell id="1516e18e63f93b96-21" value="Relation 5" style="whiteSpace=wrap;html=1;rounded=0;shadow=0;strokeWidth=1;fontSize=14" parent="1" vertex="1">
          <mxGeometry x="1460" y="990" width="210" height="50" as="geometry" />
        </mxCell>
        <mxCell id="1516e18e63f93b96-22" value="" style="whiteSpace=wrap;html=1;rounded=0;shadow=0;strokeWidth=1;fontSize=14" parent="1" vertex="1">
          <mxGeometry x="1400" y="940" width="60" height="50" as="geometry" />
        </mxCell>
        <mxCell id="1516e18e63f93b96-23" value="Relation 4" style="whiteSpace=wrap;html=1;rounded=0;shadow=0;strokeWidth=1;fontSize=14" parent="1" vertex="1">
          <mxGeometry x="1460" y="940" width="210" height="50" as="geometry" />
        </mxCell>
        <mxCell id="1516e18e63f93b96-24" value="" style="whiteSpace=wrap;html=1;rounded=0;shadow=0;strokeWidth=1;fontSize=14" parent="1" vertex="1">
          <mxGeometry x="1400" y="890" width="60" height="50" as="geometry" />
        </mxCell>
        <mxCell id="1516e18e63f93b96-25" value="Relation 3" style="whiteSpace=wrap;html=1;rounded=0;shadow=0;strokeWidth=1;fontSize=14" parent="1" vertex="1">
          <mxGeometry x="1460" y="890" width="210" height="50" as="geometry" />
        </mxCell>
        <mxCell id="1516e18e63f93b96-26" value="" style="whiteSpace=wrap;html=1;rounded=0;shadow=0;strokeWidth=1;fontSize=14" parent="1" vertex="1">
          <mxGeometry x="1400" y="840" width="60" height="50" as="geometry" />
        </mxCell>
        <mxCell id="1516e18e63f93b96-27" value="Relation 2" style="whiteSpace=wrap;html=1;rounded=0;shadow=0;strokeWidth=1;fontSize=14" parent="1" vertex="1">
          <mxGeometry x="1460" y="840" width="210" height="50" as="geometry" />
        </mxCell>
        <mxCell id="1516e18e63f93b96-28" value="" style="whiteSpace=wrap;html=1;rounded=0;shadow=0;strokeWidth=1;fontSize=14" parent="1" vertex="1">
          <mxGeometry x="1400" y="790" width="60" height="50" as="geometry" />
        </mxCell>
        <mxCell id="1516e18e63f93b96-29" value="Relation 1" style="whiteSpace=wrap;html=1;rounded=0;shadow=0;strokeWidth=1;fontSize=14" parent="1" vertex="1">
          <mxGeometry x="1460" y="790" width="210" height="50" as="geometry" />
        </mxCell>
        <mxCell id="1516e18e63f93b96-1" value="&lt;table border=&quot;1&quot; width=&quot;100%&quot; cellpadding=&quot;4&quot; style=&quot;width: 100% ; height: 100% ; border-collapse: collapse&quot;&gt;&lt;tbody&gt;&lt;tr style=&quot;background-color: #a7c942 ; color: #ffffff ; border: 1px solid #98bf21&quot;&gt;&lt;th&gt;Tasks&lt;/th&gt;&lt;th&gt;Position 1&lt;/th&gt;&lt;th&gt;Position 2&lt;/th&gt;&lt;th&gt;Position 3&lt;/th&gt;&lt;th&gt;Position 4&lt;/th&gt;&lt;th&gt;Position 5&lt;/th&gt;&lt;/tr&gt;&lt;tr style=&quot;border: 1px solid #98bf21&quot;&gt;&lt;td style=&quot;background-color: #a7c942 ; color: #ffffff ; border: 1px solid #98bf21&quot;&gt;Task 1&lt;/td&gt;&lt;td&gt;&lt;/td&gt;&lt;td&gt;&lt;/td&gt;&lt;td&gt;&lt;br&gt;&lt;/td&gt;&lt;td&gt;&lt;br&gt;&lt;/td&gt;&lt;td&gt;&lt;br&gt;&lt;/td&gt;&lt;/tr&gt;&lt;tr style=&quot;background-color: #eaf2d3 ; border: 1px solid #98bf21&quot;&gt;&lt;td style=&quot;background-color: #a7c942 ; color: #ffffff ; border: 1px solid #98bf21&quot;&gt;Task 2&lt;/td&gt;&lt;td&gt;&lt;/td&gt;&lt;td&gt;&lt;/td&gt;&lt;td&gt;&lt;br&gt;&lt;/td&gt;&lt;td&gt;&lt;br&gt;&lt;/td&gt;&lt;td&gt;&lt;br&gt;&lt;/td&gt;&lt;/tr&gt;&lt;tr style=&quot;border: 1px solid #98bf21&quot;&gt;&lt;td style=&quot;background-color: #a7c942 ; color: #ffffff ; border: 1px solid #98bf21&quot;&gt;Task 3&lt;/td&gt;&lt;td&gt;&lt;/td&gt;&lt;td&gt;&lt;/td&gt;&lt;td&gt;&lt;br&gt;&lt;/td&gt;&lt;td&gt;&lt;br&gt;&lt;/td&gt;&lt;td&gt;&lt;br&gt;&lt;/td&gt;&lt;/tr&gt;&lt;tr style=&quot;background-color: #eaf2d3 ; border: 1px solid #98bf21&quot;&gt;&lt;td style=&quot;background-color: #a7c942 ; color: #ffffff ; border: 1px solid #98bf21&quot;&gt;Task 4&lt;/td&gt;&lt;td&gt;&lt;/td&gt;&lt;td&gt;&lt;/td&gt;&lt;td&gt;&lt;br&gt;&lt;/td&gt;&lt;td&gt;&lt;br&gt;&lt;/td&gt;&lt;td&gt;&lt;br&gt;&lt;/td&gt;&lt;/tr&gt;&lt;tr style=&quot;border: 1px solid #98bf21&quot;&gt;&lt;td style=&quot;background-color: #a7c942 ; color: #ffffff ; border: 1px solid #98bf21&quot;&gt;Task 5&lt;br&gt;&lt;/td&gt;&lt;td&gt;&lt;br&gt;&lt;/td&gt;&lt;td&gt;&lt;br&gt;&lt;/td&gt;&lt;td&gt;&lt;br&gt;&lt;/td&gt;&lt;td&gt;&lt;br&gt;&lt;/td&gt;&lt;td&gt;&lt;br&gt;&lt;/td&gt;&lt;/tr&gt;&lt;tr style=&quot;background-color: #eaf2d3 ; border: 1px solid #98bf21&quot;&gt;&lt;td style=&quot;background-color: #a7c942 ; color: #ffffff ; border: 1px solid #98bf21&quot;&gt;Task 6&lt;br&gt;&lt;/td&gt;&lt;td&gt;&lt;br&gt;&lt;/td&gt;&lt;td&gt;&lt;br&gt;&lt;/td&gt;&lt;td&gt;&lt;br&gt;&lt;/td&gt;&lt;td&gt;&lt;br&gt;&lt;/td&gt;&lt;td&gt;&lt;br&gt;&lt;/td&gt;&lt;/tr&gt;&lt;tr style=&quot;border: 1px solid #98bf21&quot;&gt;&lt;td style=&quot;background-color: #a7c942 ; color: #ffffff ; border: 1px solid #98bf21&quot;&gt;Task 7&lt;br&gt;&lt;/td&gt;&lt;td&gt;&lt;br&gt;&lt;/td&gt;&lt;td&gt;&lt;br&gt;&lt;/td&gt;&lt;td&gt;&lt;br&gt;&lt;/td&gt;&lt;td&gt;&lt;br&gt;&lt;/td&gt;&lt;td&gt;&lt;br&gt;&lt;/td&gt;&lt;/tr&gt;&lt;tr style=&quot;background-color: #eaf2d3 ; border: 1px solid #98bf21&quot;&gt;&lt;td style=&quot;background-color: #a7c942 ; color: #ffffff ; border: 1px solid #98bf21&quot;&gt;Task 8&lt;br&gt;&lt;/td&gt;&lt;td&gt;&lt;br&gt;&lt;/td&gt;&lt;td&gt;&lt;br&gt;&lt;/td&gt;&lt;td&gt;&lt;br&gt;&lt;/td&gt;&lt;td&gt;&lt;br&gt;&lt;/td&gt;&lt;td&gt;&lt;br&gt;&lt;/td&gt;&lt;/tr&gt;&lt;tr style=&quot;border: 1px solid #98bf21&quot;&gt;&lt;td style=&quot;background-color: #a7c942 ; color: #ffffff ; border: 1px solid #98bf21&quot;&gt;Task 9&lt;br&gt;&lt;/td&gt;&lt;td&gt;&lt;br&gt;&lt;/td&gt;&lt;td&gt;&lt;br&gt;&lt;/td&gt;&lt;td&gt;&lt;br&gt;&lt;/td&gt;&lt;td&gt;&lt;br&gt;&lt;/td&gt;&lt;td&gt;&lt;br&gt;&lt;/td&gt;&lt;/tr&gt;&lt;tr style=&quot;background-color: #eaf2d3 ; border: 1px solid #98bf21&quot;&gt;&lt;td style=&quot;background-color: #a7c942 ; color: #ffffff ; border: 1px solid #98bf21&quot;&gt;Task 10&lt;br&gt;&lt;/td&gt;&lt;td&gt;&lt;br&gt;&lt;/td&gt;&lt;td&gt;&lt;br&gt;&lt;/td&gt;&lt;td&gt;&lt;br&gt;&lt;/td&gt;&lt;td&gt;&lt;br&gt;&lt;/td&gt;&lt;td&gt;&lt;br&gt;&lt;/td&gt;&lt;/tr&gt;&lt;/tbody&gt;&lt;/table&gt;" style="text;html=1;strokeColor=#c0c0c0;fillColor=#ffffff;overflow=fill;rounded=0;shadow=1;fontSize=14;fontColor=#000000;" parent="1" vertex="1">
          <mxGeometry x="160" y="160" width="1090" height="660" as="geometry" />
        </mxCell>
        <mxCell id="1516e18e63f93b96-3" value="Title" style="text;strokeColor=none;fillColor=none;html=1;fontSize=24;fontStyle=1;verticalAlign=middle;align=center;rounded=0;shadow=1;" parent="1" vertex="1">
          <mxGeometry x="300" y="70" width="780" height="40" as="geometry" />
        </mxCell>
        <mxCell id="1516e18e63f93b96-6" value="" style="ellipse;whiteSpace=wrap;html=1;rounded=0;shadow=0;strokeWidth=3;fontSize=14" parent="1" vertex="1">
          <mxGeometry x="1415" y="800" width="30" height="30" as="geometry" />
        </mxCell>
        <mxCell id="1516e18e63f93b96-7" value="" style="ellipse;whiteSpace=wrap;html=1;rounded=0;shadow=0;strokeWidth=3;fontSize=14;fillColor=#000000;" parent="1" vertex="1">
          <mxGeometry x="1415" y="850" width="30" height="30" as="geometry" />
        </mxCell>
        <mxCell id="1516e18e63f93b96-8" value="" style="triangle;whiteSpace=wrap;html=1;rounded=0;shadow=0;strokeWidth=3;fillColor=#000000;fontSize=14;direction=north;" parent="1" vertex="1">
          <mxGeometry x="1415" y="950" width="30" height="30" as="geometry" />
        </mxCell>
        <mxCell id="1516e18e63f93b96-9" value="" style="triangle;whiteSpace=wrap;html=1;rounded=0;shadow=0;strokeWidth=3;fontSize=14;direction=north;" parent="1" vertex="1">
          <mxGeometry x="1415" y="900" width="30" height="30" as="geometry" />
        </mxCell>
        <mxCell id="1516e18e63f93b96-10" value="" style="whiteSpace=wrap;html=1;rounded=0;shadow=0;strokeWidth=3;fontSize=14" parent="1" vertex="1">
          <mxGeometry x="1415" y="1000" width="30" height="30" as="geometry" />
        </mxCell>
        <mxCell id="1516e18e63f93b96-11" value="" style="whiteSpace=wrap;html=1;rounded=0;shadow=0;strokeWidth=3;fillColor=#000000;fontSize=14" parent="1" vertex="1">
          <mxGeometry x="1415" y="1050" width="30" height="30" as="geometry" />
        </mxCell>
        <mxCell id="1516e18e63f93b96-13" value="" style="rhombus;whiteSpace=wrap;html=1;rounded=0;shadow=0;strokeWidth=3;fontSize=14" parent="1" vertex="1">
          <mxGeometry x="1415" y="1100" width="30" height="30" as="geometry" />
        </mxCell>
        <mxCell id="1516e18e63f93b96-31" value="" style="ellipse;whiteSpace=wrap;html=1;rounded=0;shadow=0;strokeWidth=3;fontSize=14" parent="1" vertex="1">
          <mxGeometry x="946" y="595" width="30" height="30" as="geometry" />
        </mxCell>
        <mxCell id="1516e18e63f93b96-32" value="" style="ellipse;whiteSpace=wrap;html=1;rounded=0;shadow=0;strokeWidth=3;fontSize=14" parent="1" vertex="1">
          <mxGeometry x="570" y="475" width="30" height="30" as="geometry" />
        </mxCell>
        <mxCell id="1516e18e63f93b96-33" value="" style="ellipse;whiteSpace=wrap;html=1;rounded=0;shadow=0;strokeWidth=3;fontSize=14;fillColor=#000000;" parent="1" vertex="1">
          <mxGeometry x="1140" y="417" width="30" height="30" as="geometry" />
        </mxCell>
        <mxCell id="1516e18e63f93b96-34" value="" style="ellipse;whiteSpace=wrap;html=1;rounded=0;shadow=0;strokeWidth=3;fontSize=14;fillColor=#000000;" parent="1" vertex="1">
          <mxGeometry x="946" y="655" width="30" height="30" as="geometry" />
        </mxCell>
        <mxCell id="1516e18e63f93b96-35" value="" style="triangle;whiteSpace=wrap;html=1;rounded=0;shadow=0;strokeWidth=3;fontSize=14;direction=north;" parent="1" vertex="1">
          <mxGeometry x="570" y="775" width="30" height="30" as="geometry" />
        </mxCell>
        <mxCell id="1516e18e63f93b96-36" value="" style="triangle;whiteSpace=wrap;html=1;rounded=0;shadow=0;strokeWidth=3;fontSize=14;direction=north;" parent="1" vertex="1">
          <mxGeometry x="760" y="355" width="30" height="30" as="geometry" />
        </mxCell>
        <mxCell id="1516e18e63f93b96-37" value="" style="triangle;whiteSpace=wrap;html=1;rounded=0;shadow=0;strokeWidth=3;fillColor=#000000;fontSize=14;direction=north;" parent="1" vertex="1">
          <mxGeometry x="1138" y="775" width="30" height="30" as="geometry" />
        </mxCell>
        <mxCell id="1516e18e63f93b96-38" value="" style="triangle;whiteSpace=wrap;html=1;rounded=0;shadow=0;strokeWidth=3;fillColor=#000000;fontSize=14;direction=north;" parent="1" vertex="1">
          <mxGeometry x="760" y="770" width="30" height="30" as="geometry" />
        </mxCell>
        <mxCell id="1516e18e63f93b96-39" value="" style="triangle;whiteSpace=wrap;html=1;rounded=0;shadow=0;strokeWidth=3;fillColor=#000000;fontSize=14;direction=north;" parent="1" vertex="1">
          <mxGeometry x="380" y="715" width="30" height="30" as="geometry" />
        </mxCell>
        <mxCell id="1516e18e63f93b96-40" value="" style="whiteSpace=wrap;html=1;rounded=0;shadow=0;strokeWidth=3;fontSize=14" parent="1" vertex="1">
          <mxGeometry x="380" y="234" width="30" height="30" as="geometry" />
        </mxCell>
        <mxCell id="1516e18e63f93b96-41" value="" style="whiteSpace=wrap;html=1;rounded=0;shadow=0;strokeWidth=3;fontSize=14" parent="1" vertex="1">
          <mxGeometry x="570" y="234" width="30" height="30" as="geometry" />
        </mxCell>
        <mxCell id="1516e18e63f93b96-42" value="" style="whiteSpace=wrap;html=1;rounded=0;shadow=0;strokeWidth=3;fontSize=14" parent="1" vertex="1">
          <mxGeometry x="946" y="294" width="30" height="30" as="geometry" />
        </mxCell>
        <mxCell id="1516e18e63f93b96-43" value="" style="whiteSpace=wrap;html=1;rounded=0;shadow=0;strokeWidth=3;fillColor=#ffffff;fontSize=14" parent="1" vertex="1">
          <mxGeometry x="1140" y="534" width="30" height="30" as="geometry" />
        </mxCell>
        <mxCell id="1516e18e63f93b96-44" value="" style="whiteSpace=wrap;html=1;rounded=0;shadow=0;strokeWidth=3;fillColor=#000000;fontSize=14" parent="1" vertex="1">
          <mxGeometry x="380" y="595" width="30" height="30" as="geometry" />
        </mxCell>
        <mxCell id="1516e18e63f93b96-45" value="" style="whiteSpace=wrap;html=1;rounded=0;shadow=0;strokeWidth=3;fillColor=#000000;fontSize=14" parent="1" vertex="1">
          <mxGeometry x="946" y="417" width="30" height="30" as="geometry" />
        </mxCell>
        <mxCell id="1516e18e63f93b96-46" value="" style="whiteSpace=wrap;html=1;rounded=0;shadow=0;strokeWidth=3;fillColor=#000000;fontSize=14" parent="1" vertex="1">
          <mxGeometry x="1140" y="294" width="30" height="30" as="geometry" />
        </mxCell>
        <mxCell id="1516e18e63f93b96-47" value="" style="rhombus;whiteSpace=wrap;html=1;rounded=0;shadow=0;strokeWidth=3;fontSize=14" parent="1" vertex="1">
          <mxGeometry x="760" y="534" width="30" height="30" as="geometry" />
        </mxCell>
        <mxCell id="1516e18e63f93b96-48" value="" style="rhombus;whiteSpace=wrap;html=1;rounded=0;shadow=0;strokeWidth=3;fontSize=14" parent="1" vertex="1">
          <mxGeometry x="380" y="294" width="30" height="30" as="geometry" />
        </mxCell>
        <mxCell id="1516e18e63f93b96-49" value="" style="rhombus;whiteSpace=wrap;html=1;rounded=0;shadow=0;strokeWidth=3;fontSize=14" parent="1" vertex="1">
          <mxGeometry x="946" y="715" width="30" height="30" as="geometry" />
        </mxCell>
        <mxCell id="1516e18e63f93b96-50" value="" style="rhombus;whiteSpace=wrap;html=1;rounded=0;shadow=0;strokeWidth=3;fillColor=#000000;fontSize=14" parent="1" vertex="1">
          <mxGeometry x="1138" y="655" width="30" height="30" as="geometry" />
        </mxCell>
        <mxCell id="1516e18e63f93b96-51" value="" style="rhombus;whiteSpace=wrap;html=1;rounded=0;shadow=0;strokeWidth=3;fillColor=#000000;fontSize=14" parent="1" vertex="1">
          <mxGeometry x="570" y="355" width="30" height="30" as="geometry" />
        </mxCell>
        <mxCell id="1516e18e63f93b96-52" value="" style="rhombus;whiteSpace=wrap;html=1;rounded=0;shadow=0;strokeWidth=3;fillColor=#000000;fontSize=14" parent="1" vertex="1">
          <mxGeometry x="760" y="234" width="30" height="30" as="geometry" />
        </mxCell>
        <mxCell id="1516e18e63f93b96-53" value="" style="rhombus;whiteSpace=wrap;html=1;rounded=0;shadow=0;strokeWidth=3;fillColor=#000000;fontSize=14" parent="1" vertex="1">
          <mxGeometry x="760" y="715" width="30" height="30" as="geometry" />
        </mxCell>
      </root>
    </mxGraphModel>
  </diagram>
  <diagram id="W0QNw6zHp7beXHkul2aB" name="Page-2">
    <mxGraphModel dx="1865" dy="1749" grid="1" gridSize="10" guides="1" tooltips="1" connect="1" arrows="1" fold="1" page="1" pageScale="1" pageWidth="827" pageHeight="1169" math="0" shadow="0">
      <root>
        <mxCell id="OTb2xt_ZjVeOsYl2aJRV-0" />
        <mxCell id="OTb2xt_ZjVeOsYl2aJRV-1" parent="OTb2xt_ZjVeOsYl2aJRV-0" />
        <mxCell id="OTb2xt_ZjVeOsYl2aJRV-4" value="" style="edgeStyle=orthogonalEdgeStyle;rounded=0;orthogonalLoop=1;jettySize=auto;html=1;" edge="1" parent="OTb2xt_ZjVeOsYl2aJRV-1" source="OTb2xt_ZjVeOsYl2aJRV-2" target="OTb2xt_ZjVeOsYl2aJRV-3">
          <mxGeometry relative="1" as="geometry" />
        </mxCell>
        <mxCell id="OTb2xt_ZjVeOsYl2aJRV-2" value="Đơn hàng" style="rounded=1;whiteSpace=wrap;html=1;fillColor=#d5e8d4;strokeColor=#82b366;shadow=0;glass=0;sketch=1;" vertex="1" parent="OTb2xt_ZjVeOsYl2aJRV-1">
          <mxGeometry x="310" y="210" width="120" height="60" as="geometry" />
        </mxCell>
        <mxCell id="OTb2xt_ZjVeOsYl2aJRV-6" value="" style="edgeStyle=orthogonalEdgeStyle;rounded=0;orthogonalLoop=1;jettySize=auto;html=1;" edge="1" parent="OTb2xt_ZjVeOsYl2aJRV-1" source="OTb2xt_ZjVeOsYl2aJRV-3" target="OTb2xt_ZjVeOsYl2aJRV-5">
          <mxGeometry relative="1" as="geometry">
            <Array as="points">
              <mxPoint x="220" y="100" />
              <mxPoint x="220" y="165" />
            </Array>
          </mxGeometry>
        </mxCell>
        <mxCell id="OTb2xt_ZjVeOsYl2aJRV-8" value="" style="edgeStyle=orthogonalEdgeStyle;rounded=0;orthogonalLoop=1;jettySize=auto;html=1;entryX=0.5;entryY=1;entryDx=0;entryDy=0;" edge="1" parent="OTb2xt_ZjVeOsYl2aJRV-1" source="OTb2xt_ZjVeOsYl2aJRV-3" target="OTb2xt_ZjVeOsYl2aJRV-7">
          <mxGeometry relative="1" as="geometry">
            <Array as="points">
              <mxPoint x="95" y="100" />
            </Array>
          </mxGeometry>
        </mxCell>
        <mxCell id="OTb2xt_ZjVeOsYl2aJRV-10" value="" style="edgeStyle=orthogonalEdgeStyle;rounded=0;orthogonalLoop=1;jettySize=auto;html=1;" edge="1" parent="OTb2xt_ZjVeOsYl2aJRV-1" source="OTb2xt_ZjVeOsYl2aJRV-3" target="OTb2xt_ZjVeOsYl2aJRV-9">
          <mxGeometry relative="1" as="geometry" />
        </mxCell>
        <mxCell id="OTb2xt_ZjVeOsYl2aJRV-12" value="" style="edgeStyle=orthogonalEdgeStyle;rounded=0;orthogonalLoop=1;jettySize=auto;html=1;" edge="1" parent="OTb2xt_ZjVeOsYl2aJRV-1" source="OTb2xt_ZjVeOsYl2aJRV-3" target="OTb2xt_ZjVeOsYl2aJRV-11">
          <mxGeometry relative="1" as="geometry" />
        </mxCell>
        <mxCell id="OTb2xt_ZjVeOsYl2aJRV-14" style="edgeStyle=orthogonalEdgeStyle;rounded=0;orthogonalLoop=1;jettySize=auto;html=1;entryX=0.5;entryY=1;entryDx=0;entryDy=0;" edge="1" parent="OTb2xt_ZjVeOsYl2aJRV-1" source="OTb2xt_ZjVeOsYl2aJRV-3" target="OTb2xt_ZjVeOsYl2aJRV-13">
          <mxGeometry relative="1" as="geometry">
            <Array as="points">
              <mxPoint x="370" y="40" />
              <mxPoint x="330" y="40" />
            </Array>
          </mxGeometry>
        </mxCell>
        <mxCell id="OTb2xt_ZjVeOsYl2aJRV-16" style="edgeStyle=orthogonalEdgeStyle;rounded=0;orthogonalLoop=1;jettySize=auto;html=1;entryX=0;entryY=0.5;entryDx=0;entryDy=0;" edge="1" parent="OTb2xt_ZjVeOsYl2aJRV-1" source="OTb2xt_ZjVeOsYl2aJRV-3" target="OTb2xt_ZjVeOsYl2aJRV-15">
          <mxGeometry relative="1" as="geometry">
            <mxPoint x="420" y="20" as="targetPoint" />
          </mxGeometry>
        </mxCell>
        <mxCell id="OTb2xt_ZjVeOsYl2aJRV-18" style="edgeStyle=orthogonalEdgeStyle;rounded=0;orthogonalLoop=1;jettySize=auto;html=1;entryX=0.5;entryY=1;entryDx=0;entryDy=0;" edge="1" parent="OTb2xt_ZjVeOsYl2aJRV-1" source="OTb2xt_ZjVeOsYl2aJRV-3" target="OTb2xt_ZjVeOsYl2aJRV-17">
          <mxGeometry relative="1" as="geometry" />
        </mxCell>
        <mxCell id="OTb2xt_ZjVeOsYl2aJRV-3" value="Trạng thái DH" style="ellipse;whiteSpace=wrap;html=1;rounded=1;fillColor=#dae8fc;strokeColor=#6c8ebf;" vertex="1" parent="OTb2xt_ZjVeOsYl2aJRV-1">
          <mxGeometry x="310" y="60" width="120" height="80" as="geometry" />
        </mxCell>
        <mxCell id="OTb2xt_ZjVeOsYl2aJRV-5" value="Khởi tạo" style="whiteSpace=wrap;html=1;rounded=1;" vertex="1" parent="OTb2xt_ZjVeOsYl2aJRV-1">
          <mxGeometry x="90" y="140" width="120" height="30" as="geometry" />
        </mxCell>
        <mxCell id="OTb2xt_ZjVeOsYl2aJRV-44" value="" style="edgeStyle=orthogonalEdgeStyle;rounded=0;orthogonalLoop=1;jettySize=auto;html=1;entryX=1;entryY=0.75;entryDx=0;entryDy=0;" edge="1" parent="OTb2xt_ZjVeOsYl2aJRV-1" source="OTb2xt_ZjVeOsYl2aJRV-7" target="OTb2xt_ZjVeOsYl2aJRV-43">
          <mxGeometry relative="1" as="geometry" />
        </mxCell>
        <mxCell id="OTb2xt_ZjVeOsYl2aJRV-45" value="Tự động sinh" style="edgeLabel;html=1;align=center;verticalAlign=middle;resizable=0;points=[];" vertex="1" connectable="0" parent="OTb2xt_ZjVeOsYl2aJRV-44">
          <mxGeometry x="-0.2554" y="3" relative="1" as="geometry">
            <mxPoint y="90" as="offset" />
          </mxGeometry>
        </mxCell>
        <mxCell id="OTb2xt_ZjVeOsYl2aJRV-47" style="edgeStyle=orthogonalEdgeStyle;rounded=0;orthogonalLoop=1;jettySize=auto;html=1;entryX=1;entryY=0.5;entryDx=0;entryDy=0;" edge="1" parent="OTb2xt_ZjVeOsYl2aJRV-1" source="OTb2xt_ZjVeOsYl2aJRV-7" target="OTb2xt_ZjVeOsYl2aJRV-46">
          <mxGeometry relative="1" as="geometry" />
        </mxCell>
        <mxCell id="OTb2xt_ZjVeOsYl2aJRV-53" style="edgeStyle=orthogonalEdgeStyle;rounded=0;orthogonalLoop=1;jettySize=auto;html=1;entryX=1;entryY=0.5;entryDx=0;entryDy=0;" edge="1" parent="OTb2xt_ZjVeOsYl2aJRV-1" source="OTb2xt_ZjVeOsYl2aJRV-7" target="OTb2xt_ZjVeOsYl2aJRV-52">
          <mxGeometry relative="1" as="geometry" />
        </mxCell>
        <mxCell id="OTb2xt_ZjVeOsYl2aJRV-7" value="Sẵn sàng" style="whiteSpace=wrap;html=1;rounded=1;" vertex="1" parent="OTb2xt_ZjVeOsYl2aJRV-1">
          <mxGeometry x="50" y="30" width="90" height="30" as="geometry" />
        </mxCell>
        <mxCell id="OTb2xt_ZjVeOsYl2aJRV-41" value="" style="edgeStyle=orthogonalEdgeStyle;rounded=0;orthogonalLoop=1;jettySize=auto;html=1;" edge="1" parent="OTb2xt_ZjVeOsYl2aJRV-1" source="OTb2xt_ZjVeOsYl2aJRV-9" target="OTb2xt_ZjVeOsYl2aJRV-40">
          <mxGeometry relative="1" as="geometry" />
        </mxCell>
        <mxCell id="OTb2xt_ZjVeOsYl2aJRV-42" value="Tự động sinh" style="edgeLabel;html=1;align=center;verticalAlign=middle;resizable=0;points=[];" vertex="1" connectable="0" parent="OTb2xt_ZjVeOsYl2aJRV-41">
          <mxGeometry x="0.54" y="3" relative="1" as="geometry">
            <mxPoint as="offset" />
          </mxGeometry>
        </mxCell>
        <mxCell id="OTb2xt_ZjVeOsYl2aJRV-49" style="edgeStyle=orthogonalEdgeStyle;rounded=0;orthogonalLoop=1;jettySize=auto;html=1;entryX=1;entryY=0.5;entryDx=0;entryDy=0;" edge="1" parent="OTb2xt_ZjVeOsYl2aJRV-1" source="OTb2xt_ZjVeOsYl2aJRV-9" target="OTb2xt_ZjVeOsYl2aJRV-48">
          <mxGeometry relative="1" as="geometry">
            <Array as="points">
              <mxPoint x="-60" y="-20" />
              <mxPoint x="-60" y="-130" />
            </Array>
          </mxGeometry>
        </mxCell>
        <mxCell id="OTb2xt_ZjVeOsYl2aJRV-51" style="edgeStyle=orthogonalEdgeStyle;rounded=0;orthogonalLoop=1;jettySize=auto;html=1;entryX=1;entryY=0.5;entryDx=0;entryDy=0;" edge="1" parent="OTb2xt_ZjVeOsYl2aJRV-1" source="OTb2xt_ZjVeOsYl2aJRV-9" target="OTb2xt_ZjVeOsYl2aJRV-50">
          <mxGeometry relative="1" as="geometry">
            <Array as="points">
              <mxPoint x="-70" y="-20" />
              <mxPoint x="-70" y="-60" />
            </Array>
          </mxGeometry>
        </mxCell>
        <mxCell id="OTb2xt_ZjVeOsYl2aJRV-57" style="edgeStyle=orthogonalEdgeStyle;rounded=0;orthogonalLoop=1;jettySize=auto;html=1;entryX=0;entryY=0.5;entryDx=0;entryDy=0;exitX=0;exitY=0.5;exitDx=0;exitDy=0;" edge="1" parent="OTb2xt_ZjVeOsYl2aJRV-1" source="OTb2xt_ZjVeOsYl2aJRV-9" target="OTb2xt_ZjVeOsYl2aJRV-56">
          <mxGeometry relative="1" as="geometry" />
        </mxCell>
        <mxCell id="OTb2xt_ZjVeOsYl2aJRV-58" style="edgeStyle=orthogonalEdgeStyle;rounded=0;orthogonalLoop=1;jettySize=auto;html=1;entryX=1;entryY=0.25;entryDx=0;entryDy=0;" edge="1" parent="OTb2xt_ZjVeOsYl2aJRV-1" source="OTb2xt_ZjVeOsYl2aJRV-9" target="OTb2xt_ZjVeOsYl2aJRV-52">
          <mxGeometry relative="1" as="geometry" />
        </mxCell>
        <mxCell id="OTb2xt_ZjVeOsYl2aJRV-9" value="Chờ tài xế xác nhận" style="whiteSpace=wrap;html=1;rounded=1;" vertex="1" parent="OTb2xt_ZjVeOsYl2aJRV-1">
          <mxGeometry x="100" y="-40" width="120" height="40" as="geometry" />
        </mxCell>
        <mxCell id="OTb2xt_ZjVeOsYl2aJRV-11" value="Chờ nhận hàng" style="whiteSpace=wrap;html=1;rounded=1;" vertex="1" parent="OTb2xt_ZjVeOsYl2aJRV-1">
          <mxGeometry x="180" y="-120" width="120" height="40" as="geometry" />
        </mxCell>
        <mxCell id="OTb2xt_ZjVeOsYl2aJRV-13" value="Đang vận chuyển" style="whiteSpace=wrap;html=1;rounded=1;" vertex="1" parent="OTb2xt_ZjVeOsYl2aJRV-1">
          <mxGeometry x="270" y="-60" width="120" height="40" as="geometry" />
        </mxCell>
        <mxCell id="OTb2xt_ZjVeOsYl2aJRV-15" value="Hoàn thành" style="whiteSpace=wrap;html=1;rounded=1;" vertex="1" parent="OTb2xt_ZjVeOsYl2aJRV-1">
          <mxGeometry x="430" width="120" height="40" as="geometry" />
        </mxCell>
        <mxCell id="OTb2xt_ZjVeOsYl2aJRV-17" value="Hủy" style="whiteSpace=wrap;html=1;rounded=1;" vertex="1" parent="OTb2xt_ZjVeOsYl2aJRV-1">
          <mxGeometry x="100" y="200" width="120" height="40" as="geometry" />
        </mxCell>
        <mxCell id="OTb2xt_ZjVeOsYl2aJRV-27" value="" style="shape=flexArrow;endArrow=classic;html=1;exitX=0;exitY=0.5;exitDx=0;exitDy=0;entryX=0.097;entryY=1.01;entryDx=0;entryDy=0;entryPerimeter=0;" edge="1" parent="OTb2xt_ZjVeOsYl2aJRV-1" source="OTb2xt_ZjVeOsYl2aJRV-5" target="OTb2xt_ZjVeOsYl2aJRV-7">
          <mxGeometry width="50" height="50" relative="1" as="geometry">
            <mxPoint x="390" y="120" as="sourcePoint" />
            <mxPoint x="440" y="70" as="targetPoint" />
          </mxGeometry>
        </mxCell>
        <mxCell id="OTb2xt_ZjVeOsYl2aJRV-28" value="" style="shape=flexArrow;endArrow=classic;html=1;exitX=0.177;exitY=-0.01;exitDx=0;exitDy=0;exitPerimeter=0;entryX=0;entryY=0.75;entryDx=0;entryDy=0;" edge="1" parent="OTb2xt_ZjVeOsYl2aJRV-1" source="OTb2xt_ZjVeOsYl2aJRV-7" target="OTb2xt_ZjVeOsYl2aJRV-9">
          <mxGeometry width="50" height="50" relative="1" as="geometry">
            <mxPoint x="390" y="120" as="sourcePoint" />
            <mxPoint x="440" y="70" as="targetPoint" />
          </mxGeometry>
        </mxCell>
        <mxCell id="OTb2xt_ZjVeOsYl2aJRV-30" value="" style="shape=flexArrow;endArrow=classic;html=1;exitX=0.25;exitY=0;exitDx=0;exitDy=0;entryX=0;entryY=0.5;entryDx=0;entryDy=0;" edge="1" parent="OTb2xt_ZjVeOsYl2aJRV-1" source="OTb2xt_ZjVeOsYl2aJRV-9" target="OTb2xt_ZjVeOsYl2aJRV-11">
          <mxGeometry width="50" height="50" relative="1" as="geometry">
            <mxPoint x="390" y="120" as="sourcePoint" />
            <mxPoint x="440" y="70" as="targetPoint" />
          </mxGeometry>
        </mxCell>
        <mxCell id="OTb2xt_ZjVeOsYl2aJRV-31" value="" style="shape=flexArrow;endArrow=classic;html=1;exitX=1;exitY=0.5;exitDx=0;exitDy=0;entryX=0.5;entryY=0;entryDx=0;entryDy=0;" edge="1" parent="OTb2xt_ZjVeOsYl2aJRV-1" source="OTb2xt_ZjVeOsYl2aJRV-11" target="OTb2xt_ZjVeOsYl2aJRV-13">
          <mxGeometry width="50" height="50" relative="1" as="geometry">
            <mxPoint x="390" y="120" as="sourcePoint" />
            <mxPoint x="440" y="70" as="targetPoint" />
          </mxGeometry>
        </mxCell>
        <mxCell id="OTb2xt_ZjVeOsYl2aJRV-32" value="" style="shape=flexArrow;endArrow=classic;html=1;exitX=1;exitY=0.5;exitDx=0;exitDy=0;entryX=0.5;entryY=0;entryDx=0;entryDy=0;" edge="1" parent="OTb2xt_ZjVeOsYl2aJRV-1" source="OTb2xt_ZjVeOsYl2aJRV-13" target="OTb2xt_ZjVeOsYl2aJRV-15">
          <mxGeometry width="50" height="50" relative="1" as="geometry">
            <mxPoint x="390" y="120" as="sourcePoint" />
            <mxPoint x="440" y="70" as="targetPoint" />
          </mxGeometry>
        </mxCell>
        <mxCell id="OTb2xt_ZjVeOsYl2aJRV-55" value="" style="edgeStyle=orthogonalEdgeStyle;rounded=0;orthogonalLoop=1;jettySize=auto;html=1;" edge="1" parent="OTb2xt_ZjVeOsYl2aJRV-1" source="OTb2xt_ZjVeOsYl2aJRV-40" target="OTb2xt_ZjVeOsYl2aJRV-54">
          <mxGeometry relative="1" as="geometry" />
        </mxCell>
        <mxCell id="OTb2xt_ZjVeOsYl2aJRV-60" value="" style="edgeStyle=orthogonalEdgeStyle;rounded=0;orthogonalLoop=1;jettySize=auto;html=1;" edge="1" parent="OTb2xt_ZjVeOsYl2aJRV-1" source="OTb2xt_ZjVeOsYl2aJRV-40" target="OTb2xt_ZjVeOsYl2aJRV-59">
          <mxGeometry relative="1" as="geometry" />
        </mxCell>
        <mxCell id="OTb2xt_ZjVeOsYl2aJRV-40" value="Chuyến xe" style="shape=process;whiteSpace=wrap;html=1;backgroundOutline=1;rounded=1;sketch=1;" vertex="1" parent="OTb2xt_ZjVeOsYl2aJRV-1">
          <mxGeometry x="-80" y="-230" width="120" height="40" as="geometry" />
        </mxCell>
        <mxCell id="OTb2xt_ZjVeOsYl2aJRV-43" value="Đơn hàng khách hàng" style="shape=process;whiteSpace=wrap;html=1;backgroundOutline=1;rounded=1;sketch=1;" vertex="1" parent="OTb2xt_ZjVeOsYl2aJRV-1">
          <mxGeometry x="-235" y="180" width="155" height="40" as="geometry" />
        </mxCell>
        <mxCell id="OTb2xt_ZjVeOsYl2aJRV-46" value="Bảng điều khiển&lt;br&gt;(DS chờ phân công" style="shape=process;whiteSpace=wrap;html=1;backgroundOutline=1;shadow=0;glass=0;sketch=1;size=0.058333333333333334;" vertex="1" parent="OTb2xt_ZjVeOsYl2aJRV-1">
          <mxGeometry x="-229" y="95" width="143" height="45" as="geometry" />
        </mxCell>
        <mxCell id="OTb2xt_ZjVeOsYl2aJRV-48" value="Bảng điều khiển" style="shape=process;whiteSpace=wrap;html=1;backgroundOutline=1;shadow=0;glass=0;sketch=1;" vertex="1" parent="OTb2xt_ZjVeOsYl2aJRV-1">
          <mxGeometry x="-270" y="-150" width="155" height="40" as="geometry" />
        </mxCell>
        <mxCell id="OTb2xt_ZjVeOsYl2aJRV-50" value="Bảng điều khiển&lt;br&gt;Lệnh vận chuyển" style="shape=process;whiteSpace=wrap;html=1;backgroundOutline=1;shadow=0;glass=0;sketch=1;" vertex="1" parent="OTb2xt_ZjVeOsYl2aJRV-1">
          <mxGeometry x="-277.5" y="-80" width="170" height="40" as="geometry" />
        </mxCell>
        <mxCell id="OTb2xt_ZjVeOsYl2aJRV-52" value="Bảng điều khiển&lt;br&gt;ĐHKH" style="shape=process;whiteSpace=wrap;html=1;backgroundOutline=1;shadow=0;glass=0;sketch=1;" vertex="1" parent="OTb2xt_ZjVeOsYl2aJRV-1">
          <mxGeometry x="-222.5" y="25" width="130" height="40" as="geometry" />
        </mxCell>
        <mxCell id="OTb2xt_ZjVeOsYl2aJRV-54" value="Bảng định mức chi phí" style="shape=process;whiteSpace=wrap;html=1;backgroundOutline=1;rounded=1;sketch=1;" vertex="1" parent="OTb2xt_ZjVeOsYl2aJRV-1">
          <mxGeometry x="-80" y="-370" width="120" height="60" as="geometry" />
        </mxCell>
        <mxCell id="OTb2xt_ZjVeOsYl2aJRV-56" value="Driver APP" style="shape=process;whiteSpace=wrap;html=1;backgroundOutline=1;shadow=0;glass=0;sketch=1;fillColor=#f8cecc;strokeColor=#b85450;rounded=0;" vertex="1" parent="OTb2xt_ZjVeOsYl2aJRV-1">
          <mxGeometry x="100" y="-310" width="120" height="60" as="geometry" />
        </mxCell>
        <mxCell id="OTb2xt_ZjVeOsYl2aJRV-59" value="Báo giá" style="shape=process;whiteSpace=wrap;html=1;backgroundOutline=1;rounded=1;sketch=1;" vertex="1" parent="OTb2xt_ZjVeOsYl2aJRV-1">
          <mxGeometry x="-280" y="-230" width="120" height="40" as="geometry" />
        </mxCell>
      </root>
    </mxGraphModel>
  </diagram>
</mxfile>
